Patient4_TMGait_0pt5_01_left_02_GRF.mot
version=1
nRows=44
nColumns=19
inDegrees=no
endheader
time	F1x	F1y	F1z	M1x	M1y	M1z	F2x	F2y	F2z	M2x	M2y	M2z	EC1x	EC1y	EC1z	EC2x	EC2y	EC2z
2.52	0	0	0	0	0	0	-30.084	773.6489	-49.4239	299.9386	51.9738	625.2148	-0.0462	0.0182	-0.0073	-0.0462	0.0165	0.9715
2.5331	0	0	0	0	0	0	-29.5445	799.3852	-50.2264	310.2049	52.4522	643.422	-0.0462	0.0182	-0.0073	-0.0462	0.0165	0.9715
2.5463	0	0	0	0	0	0	-27.7001	806.9175	-49.6823	313.455	51.3	646.1518	-0.0462	0.0182	-0.0073	-0.0462	0.0165	0.9715
2.5594	0	0	0	0	0	0	-24.773	801.1961	-48.1937	311.5825	48.9166	637.4828	-0.0462	0.0182	-0.0073	-0.0462	0.0165	0.9715
2.5726	0	0	0	0	0	0	-21.0642	787.7538	-46.2238	306.7043	45.7844	622.0092	-0.0462	0.0182	-0.0073	-0.0462	0.0165	0.9715
2.5857	0	0	0	0	0	0	-16.9101	771.7758	-44.222	300.804	42.3912	604.0756	-0.0462	0.0182	-0.0073	-0.0462	0.0165	0.9715
2.5989	0	0	0	0	0	0	-12.6419	757.4084	-42.562	295.466	39.1654	587.2048	-0.0462	0.0182	-0.0073	-0.0462	0.0165	0.9715
2.612	0	0	0	0	0	0	-8.5519	747.3697	-41.5015	291.7268	36.4307	573.7699	-0.0462	0.0182	-0.0073	-0.0462	0.0165	0.9715
2.6251	0	0	0	0	0	0	-4.8706	742.8602	-41.1656	290.0416	34.383	564.9111	-0.0462	0.0182	-0.0073	-0.0462	0.0165	0.9715
2.6383	0	0	0	0	0	0	-1.7544	743.7209	-41.5518	290.3452	33.0899	560.6547	-0.0462	0.0182	-0.0073	-0.0462	0.0165	0.9715
2.6514	0	0	0	0	0	0	0.71794	748.7647	-42.5532	292.1799	32.5074	560.174	-0.0462	0.0182	-0.0073	-0.0462	0.0165	0.9715
2.6646	0	0	0	0	0	0	2.5398	756.1952	-43.9917	294.8561	32.5083	562.1206	-0.0462	0.0182	-0.0073	-0.0462	0.0165	0.9715
2.6777	0	0	0	0	0	0	3.7682	764.0345	-45.6559	297.616	32.9155	564.9645	-0.0462	0.0182	-0.0073	-0.0462	0.0165	0.9715
2.6909	0	0	0	0	0	0	4.5117	770.4967	-47.3383	299.7763	33.5353	567.2896	-0.0462	0.0182	-0.0073	-0.0462	0.0165	0.9715
2.704	0	0	0	0	0	0	4.9191	774.261	-48.8645	300.8323	34.1841	568.0103	-0.0462	0.0182	-0.0073	-0.0462	0.0165	0.9715
2.7171	0	0	0	0	0	0	5.166	774.6204	-50.1148	300.5142	34.7093	566.4899	-0.0462	0.0182	-0.0073	-0.0462	0.0165	0.9715
2.7303	0	0	0	0	0	0	5.4418	771.5037	-51.0328	298.7956	34.9999	562.5635	-0.0462	0.0182	-0.0073	-0.0462	0.0165	0.9715
2.7434	0	0	0	0	0	0	5.9341	765.3862	-51.6237	295.8588	34.9898	556.4754	-0.0462	0.0182	-0.0073	-0.0462	0.0165	0.9715
2.7566	0	0	0	0	0	0	6.8096	757.1141	-51.9414	292.0294	34.6556	548.7558	-0.0462	0.0182	-0.0073	-0.0462	0.0165	0.9715
2.7697	0	0	0	0	0	0	8.1937	747.6796	-52.0693	287.6906	34.009	540.0617	-0.0462	0.0182	-0.0073	-0.0462	0.0165	0.9715
2.7829	0	0	0	0	0	0	10.1488	737.9826	-52.0966	283.1941	33.0884	531.0103	-0.0462	0.0182	-0.0073	-0.0462	0.0165	0.9715
2.796	0	0	0	0	0	0	12.6588	728.62	-52.0944	278.7811	31.9485	522.0318	-0.0462	0.0182	-0.0073	-0.0462	0.0165	0.9715
2.8091	14.4357	14.5293	0.07751	-5.4485	5.9691	9.6196	15.6214	719.736	-52.0956	274.526	30.6495	513.2657	-0.0462	0.0182	-0.0073	-0.0462	0.0165	0.9715
2.8223	15.5363	43.5533	-0.019568	-16.5797	6.3763	35.6833	18.8552	710.9609	-52.0812	270.3138	29.2473	504.5157	-0.0462	0.0182	-0.0073	-0.0462	0.0165	0.9715
2.8354	14.8263	81.4213	0.35224	-31.0713	5.629	69.8578	22.1209	701.4517	-51.9796	265.8542	27.7849	495.2735	-0.0462	0.0182	-0.0073	-0.0462	0.0165	0.9715
2.8486	12.0352	126.5525	1.3542	-48.3112	3.4858	110.7278	25.154	690.0274	-51.6776	260.7312	26.2897	484.805	-0.0462	0.0182	-0.0073	-0.0462	0.0165	0.9715
2.8617	7.2175	176.3248	3.0948	-67.2924	-0.11551	155.9081	27.7036	675.376	-51.0434	254.478	24.7735	472.2848	-0.0462	0.0182	-0.0073	-0.0462	0.0165	0.9715
2.8749	0.77365	227.4449	5.595	-86.7569	-5.0211	202.3733	29.5695	656.2927	-49.9564	246.6637	23.2382	456.9509	-0.0462	0.0182	-0.0073	-0.0462	0.0165	0.9715
2.888	-6.6259	276.5151	8.7647	-105.4128	-10.8704	246.9745	30.6285	631.9019	-48.3346	236.9738	21.6831	438.2512	-0.0462	0.0182	-0.0073	-0.0462	0.0165	0.9715
2.9011	-14.1847	320.679	12.4002	-122.1814	-17.1526	287.0378	30.8463	601.8188	-46.1536	225.2688	20.1115	415.9494	-0.0462	0.0182	-0.0073	-0.0462	0.0165	0.9715
2.9143	-21.1444	358.1617	16.2184	-136.3992	-23.3041	320.8699	30.2711	566.2191	-43.4513	211.61	18.5348	390.173	-0.0462	0.0182	-0.0073	-0.0462	0.0165	0.9715
2.9274	-26.9171	388.5302	19.9208	-147.9121	-28.8199	348.0097	29.0124	525.8059	-40.3185	196.2476	16.9731	361.3931	-0.0462	0.0182	-0.0073	-0.0462	0.0165	0.9715
2.9406	-31.1609	412.623	23.2681	-157.0436	-33.3512	369.172	27.2089	481.691	-36.8803	179.5788	15.4544	330.3476	-0.0462	0.0182	-0.0073	-0.0462	0.0165	0.9715
2.9537	-33.7949	432.2213	26.1391	-164.4645	-36.7632	385.9493	24.9975	435.2251	-33.2763	162.0871	14.0135	297.9308	-0.0462	0.0182	-0.0073	-0.0462	0.0165	0.9715
2.9669	-34.9671	449.5919	28.5583	-171.0183	-39.1454	400.3934	22.4887	387.8211	-29.6441	144.2789	12.6909	265.0773	-0.0462	0.0182	-0.0073	-0.0462	0.0165	0.9715
2.98	-34.9922	467.0293	30.6849	-177.5489	-40.7748	414.5924	19.7576	340.8048	-26.1088	126.6301	11.5303	232.6624	-0.0462	0.0182	-0.0073	-0.0462	0.0165	0.9715
2.9931	-34.2741	486.4834	32.7671	-184.7647	-42.0416	430.3239	16.8481	295.3141	-22.7757	109.5502	10.5733	201.4349	-0.0462	0.0182	-0.0073	-0.0462	0.0165	0.9715
3.0063	-33.2282	509.3154	35.074	-193.1537	-43.3568	448.8259	13.7894	252.2507	-19.7249	93.3659	9.8513	171.9842	-0.0462	0.0182	-0.0073	-0.0462	0.0165	0.9715
3.0194	-32.214	536.1836	37.8248	-202.9469	-45.0616	470.6888	10.6162	212.276	-17.0065	78.3194	9.3753	144.7366	-0.0462	0.0182	-0.0073	-0.0462	0.0165	0.9715
3.0326	-31.4869	567.0384	41.1342	-214.1225	-47.3607	495.8518	7.3865	175.8345	-14.6374	64.578	9.1282	119.9705	-0.0462	0.0182	-0.0073	-0.0462	0.0165	0.9715
3.0457	-31.1727	601.1946	44.9879	-226.4343	-50.291	523.6746	4.1907	143.1889	-12.6019	52.2456	9.0617	97.8416	-0.0462	0.0182	-0.0073	-0.0462	0.0165	0.9715
3.0589	-31.2676	637.4525	49.2512	-239.4558	-53.7307	553.0574	1.1485	114.4553	-10.8564	41.3751	9.1015	78.4065	-0.0462	0.0182	-0.0073	-0.0462	0.0165	0.9715
3.072	-31.6583	674.252	53.7037	-252.6338	-57.439	582.5919	-1.6049	89.6324	-9.3401	31.9766	9.1582	61.6451	-0.0462	0.0182	-0.0073	-0.0462	0.0165	0.9715
3.0851	-32.156	709.8479	58.0857	-265.3481	-61.1109	610.7284	-3.9397	68.624	-7.9881	24.0242	9.1444	47.4765	-0.0462	0.0182	-0.0073	-0.0462	0.0165	0.9715
